<svg version="1.2" xmlns="http://www.w3.org/2000/svg" viewBox="0 0 65 37" width="65" height="37">
	<title>fer-svg</title>
	<style>
		.s0 { fill: #383737 } 
	</style>
	<g id="Layer 2">
		<g id="Layer 1">
			<path id="Layer" fill-rule="evenodd" class="s0" d="m20.7 14.6q0.1-0.7 0.4-1.4 0.3-0.6 0.8-1.1 0.5-0.5 1.1-0.8 0.7-0.2 1.4-0.2c3.2-0.4 11.7-1.4 13.2-1.8q0.7-0.2 1.4-0.1 0.6 0.1 1.2 0.5 0.7 0.3 1.1 0.8 0.4 0.5 0.7 1.2c0.3 1.2 0 2.8-2.1 3.6q-1.7 0.6-3.5 1.1-1.8 0.4-3.6 0.8-1.8 0.3-3.6 0.5-1.9 0.2-3.7 0.3-0.6 0-1.1 0c-2.8-0.2-3.7-1.9-3.7-3.4zm3.7-1.5q-0.3 0-0.6 0.1-0.3 0.1-0.6 0.3-0.2 0.3-0.4 0.6-0.1 0.3-0.1 0.6c-0.1 0.8 0.6 1.3 1.8 1.4 3.8 0.3 11.4-1.3 14.7-2.6q1.1-0.4 0.9-1.1-0.1-0.3-0.3-0.6-0.2-0.2-0.5-0.4-0.3-0.1-0.6-0.2-0.3 0-0.6 0.1c-2 0.5-13.1 1.7-13.6 1.7h-0.1z"/>
			<path id="Layer" fill-rule="evenodd" class="s0" d="m64.2 6.6q0.1 0.2 0.1 0.4 0.1 0.2 0 0.3-0.1 0.2-0.2 0.4-0.1 0.1-0.3 0.2-0.2 0.1-0.3 0.1-0.2 0-0.4 0-0.2-0.1-0.4-0.2-0.6-0.5-1.3-1-0.6-0.5-1.3-0.9-0.7-0.5-1.4-0.9-0.8-0.4-1.5-0.8v0.3q0 0.2-0.1 0.5-0.1 0.2-0.3 0.4-0.2 0.1-0.4 0.2-0.2 0.1-0.5 0.1-0.7 0.1-1.4 0.2-0.7 0.1-1.4 0.3-0.7 0.1-1.3 0.4-0.7 0.2-1.3 0.6l5.9 18.8-6.7 2.5 0.1 2.2h-1-0.5l0.3 1.8q0.1 0.3 0 0.5-0.1 0.3-0.2 0.5-0.2 0.2-0.4 0.3-0.3 0.2-0.6 0.2-8.5 0.2-15.6 0.2c-17 0-27.4-1.1-30.2-3.3q-0.3-0.2-0.4-0.4-0.1-0.3-0.2-0.5 0-0.3 0-0.6 0-0.2 0.2-0.5l0.6-1.1q-0.2 0-0.3-0.1-0.1 0-0.2-0.1-0.2-0.1-0.3-0.1-0.1-0.1-0.2-0.2l-0.8-0.4 0.4-0.8c0.3-0.8 8.9-18.3 22.6-21.7 13.5-3.3 20.6-1.4 21-1.3l0.1 0.1 1.3 0.6c1.5-1 6.1-4 10.6-3.8q0.2 0 0.5 0.1 0.2 0.1 0.4 0.3 0.1 0.2 0.2 0.4 0.1 0.2 0.1 0.5v0.8q0.9 0.4 1.8 0.9 0.9 0.4 1.7 1 0.9 0.5 1.7 1.1 0.8 0.6 1.6 1.2 0.1 0.1 0.2 0.3zm-40.7-0.3c-8.5 2.1-15.1 10.4-18.6 15.8 5.9 1 30.4 2.9 48.1-0.4l-4.5-14.3-5.2-2.4c-0.7-0.2-7.6-1.7-19.8 1.3zm22.9 24.5c-2.9 0.1-7.9 0.2-13.6 0.2-10.2 0-22.5-0.5-29.2-2.5l-0.5 1c2.1 1.2 10.5 3.5 43.5 2.5zm7.6-6l-0.4-1.3q-3.1 0.6-6.2 0.9-3.1 0.4-6.2 0.7-3.2 0.2-6.3 0.3-3.2 0.1-6.3 0.1c-11.5 0-21.7-1-24.8-1.6-0.5 0.9-0.9 1.6-1.2 2.2 8.8 4 39.2 2.9 45.2 2.7l-0.1-0.7q0-0.2 0-0.4 0.1-0.2 0.2-0.4 0.1-0.1 0.2-0.2 0.2-0.2 0.3-0.2zm-3.3-19.8q0.8-0.3 1.5-0.6 0.8-0.2 1.5-0.3 0.8-0.2 1.6-0.2v-1.9c-3 0.1-6 1.7-7.8 2.8l1.8 0.8q0.7-0.3 1.4-0.6z"/>
			<path id="Layer" class="s0" d="m49 18.9q-0.2 0.1-0.3 0.2-0.2 0.1-0.3 0.3-0.1 0.2-0.1 0.4 0 0.2 0.1 0.3l0.1 0.6q0.1 0.1 0.2 0.3 0.1 0.1 0.2 0.2 0.1 0.1 0.2 0.1 0.2 0.1 0.4 0.1 0 0 0 0 0.1 0 0.1 0 0 0 0.1 0 0 0 0 0 0.2-0.1 0.4-0.2 0.1-0.1 0.2-0.3 0.1-0.2 0.1-0.4 0-0.1 0-0.3l-0.2-0.6q0-0.2-0.2-0.3-0.1-0.2-0.2-0.3-0.2-0.1-0.4-0.1-0.2 0-0.4 0z"/>
			<path id="Layer" class="s0" d="m47.7 18c0 0.3 0.2 0.6 0.4 0.8 0.3 0.1 0.6 0.2 0.9 0.1 0.3-0.1 0.5-0.3 0.6-0.6 0.2-0.3 0.1-0.6 0-0.9l-2.5-8.2c0-0.3-0.2-0.6-0.5-0.8-0.2-0.1-0.5-0.2-0.8-0.1-0.3 0.1-0.5 0.3-0.7 0.6-0.1 0.3 0 0.6 0.1 0.9z"/>
			<path id="Layer" class="s0" d="m11 18.8q0.1 0 0.2 0 0.1 0 0.2-0.1 0.1 0 0.2-0.1 0.1-0.1 0.1-0.1 0.6-0.8 1.2-1.5 0.7-0.7 1.4-1.4 0.6-0.6 1.4-1.2 0.7-0.6 1.5-1.2 0.2-0.2 0.3-0.6 0.1-0.3-0.1-0.7-0.2-0.3-0.5-0.4-0.4-0.1-0.7 0c-1.6 0.9-3.6 2.8-6 5.7q-0.2 0.2-0.2 0.5-0.1 0.3 0.1 0.5 0.1 0.3 0.3 0.4 0.2 0.2 0.5 0.2z"/>
			<path id="Layer" class="s0" d="m8.4 21.2q0.2 0.1 0.4 0.1 0.2 0.1 0.4 0.1 0.1-0.1 0.3-0.2 0.2-0.1 0.3-0.2l0.6-0.7q0.2-0.4 0.1-0.7-0.1-0.4-0.4-0.7-0.2-0.2-0.6-0.2-0.4 0-0.7 0.3l-0.6 0.8q-0.1 0.2-0.1 0.3-0.1 0.2-0.1 0.4 0.1 0.2 0.2 0.4 0.1 0.2 0.2 0.3z"/>
		</g>
	</g>
</svg>