<?xml version="1.0" encoding="utf-8"?>
<!-- Generator: Adobe Illustrator 27.7.0, SVG Export Plug-In . SVG Version: 6.00 Build 0)  -->
<svg version="1.1" id="Calque_1" xmlns="http://www.w3.org/2000/svg" xmlns:xlink="http://www.w3.org/1999/xlink" x="0px" y="0px"
	 viewBox="0 0 64 63.7" style="enable-background:new 0 0 64 63.7;" xml:space="preserve">
<path d="M42.4,40.5H32.2c-6.7-0.2-13,5.3-12.9,12c0,0.6,0.4,1,1,1h19.4c0.6,0,1-0.4,1-1c0-1.8,1.9-8.4,2.6-10.8
	C43.6,41.1,43,40.4,42.4,40.5z M38.8,51.5H21.4c0.5-5.2,5.6-9.1,10.8-9c0,0,8.9,0,8.9,0C40.4,44.7,39.1,49.1,38.8,51.5z"/>
<path d="M59.1,28.6c-3-1.5-6.2,0.1-7.5,3c-0.6-0.3-1.3-0.7-1.9-0.1c0,0-3.9,4.7-3.9,4.7H32.2C21.7,36,12.5,45.2,12.6,55.6l-2.5,4.9
	c-0.2,0.3-0.1,0.7,0,1c0.2,0.3,0.5,0.5,0.9,0.5h44c0.7,0,1.2-0.8,0.9-1.4c0,0-2.5-5.1-2.5-5.1c-0.2-0.3-0.5-0.6-0.9-0.6h-7.4
	c0.4-2.9,2.8-5.3,5.8-5.6c0.5-0.1,1-0.6,0.9-1.1c0,0-1-6.9-1-6.9l4.3-6.8c0.3-0.5,0.1-1.2-0.4-1.4c0,0-1.2-0.6-1.2-0.6l0.5-0.8
	c2.1-3.5,7.4-0.9,5.9,2.9c0,0-3,7.1-3,7.1c-0.2,0.5,0,1.1,0.5,1.3c0.5,0.2,1.1,0,1.3-0.5c0,0,3-7.1,3-7.1
	C62.7,32.8,61.5,29.8,59.1,28.6z M53.4,60H12.6l1.5-3.1c0,0,29.9,0,29.9,0h7.8L53.4,60z M43.1,54.9H14.6C14.9,45.8,23,38,32.2,38.2
	c1.1,0,15.5,0,16.1,0c0.3,1.9,1.1,7.3,1.4,9.3C46.1,48.3,43.5,51.3,43.1,54.9z M50.3,38.3c-0.1-0.8-0.1-2-1.2-2c0,0-0.7,0-0.7,0
	l2.3-2.8l1.9,1L50.3,38.3z"/>
<path d="M10.9,43.9c-0.1,0.6,0.4,1.1,1,1.1c0,0,1,0,1,0c1.2,0,1.3-1.9,0.1-2l2.3-22.7c0-0.4-0.1-0.8-0.5-1c-0.3-0.2-0.7-0.2-1.1,0
	l-4.8,3.1l-4.6-6.6L14.8,4H19c1.3,10.6,14.7,10.6,16,0h4.2l10.5,11.9l-4.6,6.6l-4.8-3.1c-0.3-0.2-0.7-0.2-1.1,0
	c-0.3,0.2-0.5,0.6-0.5,1l1.3,13c0.1,1.3,2.1,1.1,2-0.2c0,0-1.1-11-1.1-11l3.9,2.5c0.5,0.3,1.1,0.2,1.4-0.3l5.7-8
	c0.3-0.4,0.2-0.9-0.1-1.2L40.5,2.3C40.3,2.1,40,2,39.7,2h-5.6c-0.6,0-1,0.4-1,1c0,3.9-2.7,7-6.1,7s-6.1-3.1-6.1-7c0-0.6-0.4-1-1-1
	h-5.6c-0.3,0-0.6,0.1-0.8,0.3L2.3,15.2c-0.3,0.3-0.3,0.9-0.1,1.2l5.7,8c0.3,0.4,0.9,0.6,1.4,0.3l3.9-2.5L10.9,43.9z"/>
</svg>
