<svg version="1.2" xmlns="http://www.w3.org/2000/svg" viewBox="0 0 64 64" width="100" height="100">
	<title>logo-svg</title>
	<style>
		.s0 { fill: #ffffff } 
	</style>
	<path id="Layer" fill-rule="evenodd" class="s0" d="m43.3 41.7c-0.7 2.4-2.6 9-2.6 10.8 0 0.6-0.4 1-1 1h-19.4c-0.6 0-1-0.4-1-1-0.1-6.7 6.2-12.2 12.9-12h10.2c0.6-0.1 1.2 0.6 0.9 1.2zm-2.2 0.8h-8.9c-5.2-0.1-10.3 3.8-10.8 9h17.4c0.3-2.4 1.6-6.8 2.3-9z"/>
	<path id="Layer" fill-rule="evenodd" class="s0" d="m61.7 35.4l-3 7.1c-0.2 0.5-0.8 0.7-1.3 0.5-0.5-0.2-0.7-0.8-0.5-1.3l3-7.1c1.5-3.8-3.8-6.4-5.9-2.9l-0.5 0.8 1.2 0.6c0.5 0.2 0.7 0.9 0.4 1.4l-4.3 6.8 1 6.9c0.1 0.5-0.4 1-0.9 1.1-3 0.3-5.4 2.7-5.8 5.6h7.4c0.4 0 0.7 0.3 0.9 0.6l2.5 5.1c0.3 0.6-0.2 1.4-0.9 1.4h-44c-0.4 0-0.7-0.2-0.9-0.5-0.1-0.3-0.2-0.7 0-1l2.5-4.9c-0.1-10.4 9.1-19.6 19.6-19.4h13.6l3.9-4.7c0.6-0.6 1.3-0.2 1.9 0.1 1.3-2.9 4.5-4.5 7.5-3 2.4 1.2 3.6 4.2 2.6 6.8zm-9.9 21.5h-37.7l-1.5 3.1h40.8zm-2.1-9.4c-0.3-2-1.1-7.4-1.4-9.3-0.6 0-15 0-16.1 0-9.2-0.2-17.3 7.6-17.6 16.7h28.5c0.4-3.6 3-6.6 6.6-7.4zm2.9-13l-1.9-1-2.3 2.8h0.7c1.1 0 1.1 1.2 1.2 2z"/>
	<path id="Layer" class="s0" d="m10.9 43.9c-0.1 0.6 0.4 1.1 1 1.1h1c1.2 0 1.3-1.9 0.1-2l2.3-22.7c0-0.4-0.1-0.8-0.5-1-0.3-0.2-0.7-0.2-1.1 0l-4.8 3.1-4.6-6.6 10.5-11.8h4.2c1.3 10.6 14.7 10.6 16 0h4.2l10.5 11.9-4.6 6.6-4.8-3.1c-0.3-0.2-0.7-0.2-1.1 0-0.3 0.2-0.5 0.6-0.5 1l1.3 13c0.1 1.3 2.1 1.1 2-0.2l-1.1-11 3.9 2.5c0.5 0.3 1.1 0.2 1.4-0.3l5.7-8c0.3-0.4 0.2-0.9-0.1-1.2l-11.3-12.9c-0.2-0.2-0.5-0.3-0.8-0.3h-5.6c-0.6 0-1 0.4-1 1 0 3.9-2.7 7-6.1 7-3.4 0-6.1-3.1-6.1-7 0-0.6-0.4-1-1-1h-5.6c-0.3 0-0.6 0.1-0.8 0.3l-11.2 12.9c-0.3 0.3-0.3 0.9-0.1 1.2l5.7 8c0.3 0.4 0.9 0.6 1.4 0.3l3.9-2.5z"/>
</svg>