<svg version="1.2" xmlns="http://www.w3.org/2000/svg" viewBox="0 0 55 53" width="55" height="53">
	<title>costume-svg</title>
	<style>
		.s0 { fill: #383737 } 
	</style>
	<g id="Layer 11">
		<path id="Layer" fill-rule="evenodd" class="s0" d="m51.8 11.4q0 0 0.1 0.2 0 0.1 0.1 0.2 0 0.1 0 0.2v37q0 0.2-0.1 0.4-0.1 0.2-0.2 0.3-0.1 0.1-0.3 0.2-0.2 0.1-0.4 0.1h-46q-0.2 0-0.4-0.1-0.2-0.1-0.3-0.2-0.1-0.1-0.2-0.3-0.1-0.2-0.1-0.4v-37q0-0.1 0-0.2 0.1-0.1 0.1-0.2 0.1-0.2 0.1-0.2 0.1-0.1 0.2-0.2l12-9q0.1 0 0.1-0.1 0.1 0 0.2 0 0.1-0.1 0.1-0.1 0.1 0 0.2 0h22q0.1 0 0.2 0 0 0 0.1 0.1 0.1 0 0.2 0 0 0.1 0.1 0.1l12 9q0.1 0.1 0.2 0.2zm-1.8 1.1l-9.7-7.3 2.7 11.6q0 0.2 0 0.3 0 0.2-0.1 0.4-0.1 0.1-0.2 0.2-0.1 0.2-0.3 0.2l-4.2 1.7 0.8 4.2q0 0.1 0 0.2 0 0.2 0 0.3-0.1 0.1-0.1 0.2-0.1 0.1-0.2 0.2l-9.7 10.7v12.6h21zm-23 35.5v-12.6l-9.8-10.7q0-0.1-0.1-0.2-0.1-0.1-0.1-0.2 0-0.1 0-0.3 0-0.1 0-0.2l0.8-4.2-4.2-1.7q-0.2 0-0.3-0.2-0.1-0.1-0.2-0.2-0.1-0.2-0.1-0.4 0-0.1 0-0.3l2.7-11.6-9.7 7.3v35.5zm10.9-44h-19.8l9.9 19.8zm-18.2 14.2q0.1 0.1 0.2 0.3 0.1 0.1 0.1 0.3 0 0.2 0 0.4l-0.9 4.5 7.9 8.7v-6.2l-9.6-19.3-2.2 9.4 4.2 1.7q0.2 0.1 0.3 0.2zm16.3 0.6q0-0.2 0.1-0.3 0.1-0.2 0.2-0.3 0.2-0.1 0.3-0.2l4.2-1.6-2.1-9.5-9.7 19.3v6.2l7.9-8.7-0.9-4.5q0-0.2 0-0.4zm6.4 11.4q0.1-0.1 0.3-0.2 0.1 0 0.2-0.1 0.2 0 0.3 0.1 0.2 0 0.3 0.1 0.1 0 0.2 0.1 0.1 0.1 0.2 0.2 0.1 0.2 0.1 0.3l1.3 5.3h0.7q0.4 0 0.7 0.3 0.3 0.2 0.3 0.7 0 0.4-0.3 0.7-0.3 0.3-0.7 0.3h-11q-0.4 0-0.7-0.3-0.3-0.3-0.3-0.7 0-0.5 0.3-0.7 0.3-0.3 0.7-0.3h3l4.2-5.6q0.1-0.2 0.2-0.2zm0.1 3l-2 2.8h2.7z"/>
	</g>
</svg>