<svg xmlns="http://www.w3.org/2000/svg" viewBox="0 0 64.33 42.775" x="0px" y="0px"><title>Asset 39</title><g data-name="Layer 2"><g data-name="Layer 1"><path d="M24.36,18c.35,0,.73,0,1.14,0a52,52,0,0,0,14.39-2.7c2.12-.79,2.45-2.44,2.08-3.6a3.72,3.72,0,0,0-4.37-2.4c-1.51.38-10,1.39-13.23,1.76a3.71,3.71,0,0,0-3.64,3.5C20.68,16.07,21.6,17.82,24.36,18Zm.08-5h.11C25,13,36.12,11.75,38.08,11.26a1.78,1.78,0,0,1,2,1.09c.16.51-.15.91-.91,1.2-3.27,1.23-10.88,2.83-14.69,2.54-1.19-.09-1.86-.6-1.83-1.38A1.74,1.74,0,0,1,24.44,13.08Z"/><path d="M64,6.3a32.42,32.42,0,0,0-6.81-4.23V1.29A1.27,1.27,0,0,0,56,0c-4.49-.18-9.09,2.77-10.55,3.8l-1.32-.62-.14-.05C43.64,3.05,36.47,1.08,23,4.4,9.34,7.77.75,25.31.39,26.06L0,26.87l.77.46a9.85,9.85,0,0,0,1,.51l-.6,1.1a1.53,1.53,0,0,0,.39,1.93c2.89,2.22,13.25,3.35,30.26,3.35q7.05,0,15.61-.26a1.27,1.27,0,0,0,1.21-1.48l-.3-1.78.5,0,1-.05-.19-2.13L56.4,26,50.48,7.17a12.89,12.89,0,0,1,5.45-1.42,1.28,1.28,0,0,0,1.26-1.27V4.24a29.41,29.41,0,0,1,5.56,3.56,1,1,0,0,0,1.37-.12A1,1,0,0,0,64,6.3Zm-40.53,0C35.72,3.27,42.63,4.82,43.35,5l5.17,2.4L53,21.67C35.3,25,10.81,23.1,4.88,22.15,8.37,16.74,15,8.39,23.46,6.29ZM46.61,32c-33,1-41.42-1.27-43.54-2.5l.56-1c6.63,2,19,2.53,29.15,2.53,5.74,0,10.76-.15,13.62-.26Zm1.82-5.16a1.17,1.17,0,0,0-.75,1.19l.06.7c-5.94.25-36.31,1.3-45.18-2.71.28-.52.69-1.26,1.21-2.14,3.15.63,13.32,1.55,24.82,1.55a140.27,140.27,0,0,0,25-1.94l.4,1.25ZM49.27,5.6l-1.78-.83C49.2,3.7,52.26,2.07,55.24,2V2.7h0V3.82A15.19,15.19,0,0,0,49.27,5.6Z"/><path d="M49,18.92a1,1,0,0,0-.65,1.22l.17.56a1,1,0,0,0,.93.69,1,1,0,0,0,.29,0,1,1,0,0,0,.65-1.22l-.17-.56A1,1,0,0,0,49,18.92Z"/><path d="M47.71,18a1,1,0,1,0,1.86-.57L47.07,9.2a1,1,0,1,0-1.86.57Z"/><path d="M11,18.81a1,1,0,0,0,.75-.35,24.59,24.59,0,0,1,5.42-5.25,1,1,0,0,0-1-1.7c-1.53.87-3.54,2.79-6,5.7a1,1,0,0,0,.75,1.6Z"/><path d="M8.44,21.19A1,1,0,0,0,9.8,21l.57-.75A1,1,0,0,0,8.83,19l-.6.79A1,1,0,0,0,8.44,21.19Z"/></g></g><text x="0" y="49.22" fill="#000000" font-size="5px" font-weight="bold" font-family="'Helvetica Neue', Helvetica, Arial-Unicode, Arial, Sans-serif">Created by Creative Space</text><text x="0" y="54.22" fill="#000000" font-size="5px" font-weight="bold" font-family="'Helvetica Neue', Helvetica, Arial-Unicode, Arial, Sans-serif">from the Noun Project</text></svg>