<svg version="1.2" xmlns="http://www.w3.org/2000/svg" viewBox="0 0 76 98" width="76" height="98">
	<title>machine-svg</title>
	<style>
		.s0 { fill: #383737 } 
	</style>
	<g id="Layer 5 copy 5">
		<path id="Layer" fill-rule="evenodd" class="s0" d="m71.6 91.9q-0.5 1.1-1.3 1.9-0.8 0.8-1.9 1.3-1.1 0.4-2.2 0.4h-56.3q-1.2 0-2.3-0.4-1.1-0.5-1.9-1.3-0.8-0.8-1.3-1.9-0.4-1.1-0.4-2.3v-81.3q0-1.1 0.4-2.2 0.5-1.1 1.3-1.9 0.8-0.8 1.9-1.3 1.1-0.4 2.3-0.4h56.3q1.1 0 2.2 0.4 1.1 0.5 1.9 1.3 0.8 0.8 1.3 1.9 0.4 1.1 0.4 2.2v81.3q0 1.2-0.4 2.3zm-64.6-65.7h62v-17.9q0-0.5-0.2-1-0.2-0.6-0.6-1-0.4-0.4-1-0.6-0.5-0.2-1-0.2h-56.4q-0.5 0-1 0.2-0.6 0.2-1 0.6-0.4 0.4-0.6 1-0.2 0.5-0.2 1zm62 3h-62v60.5q0 0.6 0.2 1.1 0.2 0.5 0.6 0.9 0.4 0.4 1 0.6 0.5 0.2 1.1 0.2h56.3q0.5 0 1-0.2 0.6-0.2 1-0.6 0.4-0.4 0.6-0.9 0.2-0.5 0.2-1.1zm-40.7 54.6c-3.1-1.3-5.9-3.1-8.2-5.5-2.4-2.3-4.2-5.1-5.5-8.2-1.3-3.1-2-6.4-2-9.7 0-10.3 6.2-19.5 15.7-23.4 9.5-4 20.4-1.8 27.6 5.5 7.3 7.2 9.5 18.1 5.5 27.6-3.9 9.5-13.1 15.6-23.4 15.6-3.3 0-6.6-0.6-9.7-1.9zm1.1-44.1c-2.7 1.1-5.1 2.8-7.2 4.9-2.1 2-3.7 4.5-4.9 7.2-1.1 2.7-1.7 5.7-1.7 8.6 0.1 9 5.5 17.2 13.9 20.6 8.3 3.5 17.9 1.6 24.3-4.8 6.4-6.4 8.3-16.1 4.9-24.4-3.5-8.4-11.7-13.8-20.7-13.8-2.9 0-5.8 0.6-8.6 1.7zm31.1 3.7c-0.2-0.3-0.3-0.7-0.2-1.1 0-0.4 0.2-0.7 0.6-1 0.3-0.2 0.7-0.3 1.1-0.3 0.4 0.1 0.7 0.3 0.9 0.6q0.4 0.5 0.7 1 0.3 0.4 0.7 0.9 0.3 0.5 0.6 1 0.3 0.5 0.5 1 0.2 0.3 0.2 0.5 0 0.3-0.1 0.6-0.1 0.3-0.2 0.5-0.2 0.2-0.5 0.4-0.1 0-0.1 0.1-0.1 0-0.2 0-0.1 0-0.2 0.1-0.1 0-0.2 0-0.2 0-0.4-0.1-0.2 0-0.3-0.1-0.2-0.1-0.4-0.2-0.1-0.1-0.2-0.3-0.3-0.5-0.5-0.9-0.3-0.5-0.6-0.9-0.2-0.5-0.5-0.9-0.3-0.4-0.6-0.8zm-14-11.6q0.1-0.3 0.3-0.5 0.2-0.2 0.4-0.3 0.3-0.2 0.6-0.2 0.3 0 0.6 0.1 1.5 0.5 2.8 1.2 1.4 0.7 2.8 1.5 1.3 0.8 2.5 1.7 1.3 0.9 2.4 2 0.2 0.2 0.3 0.4 0.2 0.3 0.2 0.6 0 0.3-0.1 0.6-0.1 0.3-0.3 0.5-0.1 0.1-0.2 0.2-0.2 0.1-0.3 0.1-0.1 0.1-0.3 0.1-0.2 0.1-0.3 0.1-0.1 0-0.3-0.1-0.1 0-0.2 0-0.2-0.1-0.3-0.2-0.1 0-0.2-0.1-1-1-2.2-1.8-1.1-0.8-2.3-1.6-1.2-0.7-2.4-1.3-1.3-0.6-2.6-1-0.3-0.1-0.5-0.3-0.2-0.2-0.4-0.5-0.1-0.3-0.1-0.6 0-0.3 0.1-0.5zm-15.2 44.5c-2.1-0.8-4-2.1-5.7-3.7-1.6-1.7-2.9-3.6-3.7-5.7-0.9-2.1-1.4-4.4-1.4-6.6 0-4.7 1.9-9.1 5.1-12.4 3.3-3.2 7.7-5 12.3-5 4.7 0 9.1 1.8 12.3 5 3.3 3.3 5.1 7.7 5.1 12.4v0.1c0 2.2-0.4 4.5-1.3 6.6-0.9 2.1-2.2 4-3.8 5.6-1.6 1.6-3.5 2.9-5.6 3.7-2.1 0.9-4.4 1.4-6.7 1.4-2.2 0-4.5-0.5-6.6-1.4zm1.8-29.6c-1.6 0.6-3.1 1.4-4.3 2.5-1.3 1-2.4 2.3-3.3 3.8-0.8 1.4-1.4 3-1.7 4.6 2.9-1.4 7.8-3.1 12.1-1.4l1.8 0.8c4.7 1.9 9.2 3.8 14.6 2.2-0.1-1.8-0.6-3.6-1.4-5.2-0.8-1.6-1.9-3.1-3.2-4.3-1.3-1.2-2.8-2.2-4.5-2.8-1.7-0.7-3.5-1-5.3-1-1.6 0-3.3 0.3-4.8 0.8zm-9.5 14.4c0.2 3.5 1.7 6.9 4.2 9.4 2.6 2.5 6 4 9.5 4.2 3.6 0.1 7.1-1.1 9.9-3.3 2.7-2.3 4.5-5.6 5-9.1q-0.5 0.1-1 0.2-0.5 0.1-1 0.2-0.5 0-1 0-0.5 0.1-1 0.1-1.3-0.1-2.7-0.3-1.3-0.2-2.6-0.5-1.3-0.3-2.6-0.7-1.3-0.5-2.5-1l-1.2-0.6-1.9-0.7c-3.1-1.2-7 0.1-9.5 1.3-0.7 0.3-1.3 0.6-1.6 0.8zm-3-52q1.3 0.5 2.3 1.5 1 1 1.5 2.3 0.5 1.3 0.5 2.7c0 2.9-1.7 5.4-4.3 6.5-2.7 1.1-5.7 0.5-7.8-1.5-2-2.1-2.6-5.1-1.4-7.8 1.1-2.6 3.7-4.3 6.5-4.3q1.4 0 2.7 0.6zm-1.1 10.2q0.7-0.3 1.3-0.9 0.5-0.5 0.8-1.3 0.3-0.7 0.3-1.5c0-1.7-1-3.2-2.5-3.8-1.5-0.6-3.3-0.2-4.4 0.9-1.2 1.2-1.5 3-0.9 4.5 0.7 1.5 2.2 2.5 3.8 2.5q0.8-0.1 1.6-0.4zm12.8-8.2q0.9 0 1.7 0.3 0.9 0.4 1.5 1 0.6 0.6 1 1.5 0.3 0.8 0.3 1.7c0 1.8-1.1 3.4-2.7 4.1-1.7 0.7-3.6 0.3-4.9-0.9-1.3-1.3-1.7-3.3-1-4.9 0.7-1.7 2.3-2.8 4.2-2.8zm0 6q0.3 0 0.5-0.1 0.3-0.1 0.5-0.3 0.2-0.2 0.4-0.5 0.1-0.3 0.1-0.6c0-0.6-0.4-1.1-0.9-1.3-0.6-0.3-1.2-0.1-1.6 0.3-0.5 0.4-0.6 1-0.4 1.6 0.3 0.5 0.8 0.9 1.4 0.9zm10.7-5.9q0.9-0.1 1.7 0.3 0.9 0.3 1.5 0.9 0.6 0.7 1 1.5 0.3 0.8 0.3 1.7c0 1.8-1.1 3.5-2.7 4.2-1.7 0.7-3.6 0.3-4.9-1-1.3-1.3-1.7-3.2-1-4.9 0.7-1.7 2.3-2.8 4.1-2.8zm0 6q0.3 0 0.6-0.1 0.3-0.1 0.5-0.3 0.2-0.2 0.3-0.5 0.2-0.2 0.2-0.5c0-0.6-0.4-1.2-1-1.4-0.5-0.2-1.1-0.1-1.6 0.3-0.4 0.4-0.5 1.1-0.3 1.6 0.2 0.6 0.8 0.9 1.4 0.9zm20.5-8.9q0.3 0 0.6 0.1 0.3 0.1 0.5 0.3 0.2 0.2 0.3 0.5 0.1 0.3 0.1 0.6v12q0 0.3-0.1 0.6-0.1 0.2-0.3 0.5-0.2 0.2-0.5 0.3-0.3 0.1-0.6 0.1h-9.1q-0.3 0-0.6-0.1-0.3-0.1-0.5-0.3-0.2-0.3-0.3-0.5-0.1-0.3-0.1-0.6v-12q0-0.3 0.1-0.6 0.1-0.3 0.3-0.5 0.2-0.2 0.5-0.3 0.3-0.1 0.6-0.1h9.2zm-1.5 3h-6.2v9h6.2z"/>
	</g>
</svg>